<svg xmlns="http://www.w3.org/2000/svg" width="180" height="48" fill="none"><path fill="url(#a)" d="M0 10.07q0-2.303.973-4.352a10.6 10.6 0 0 1 2.758-3.563Q5.516.661 7.95 0l1.46 4.971q-1.995.534-3.083 1.942-1.065 1.43-1.043 3.136 0 1.516.765 2.71a5.37 5.37 0 0 0 2.063 1.878q1.32.682 2.943.682 2.48 0 4.149-1.472 1.668-1.471 1.668-3.798 0-.703-.208-1.386a6 6 0 0 0-.58-1.28l4.404-2.348 9.595 10.327-1.344.448V1.195h5.26v18.84h-5.283l-8.668-8.3 1.645-.043q-.209 2.796-1.692 4.758-1.483 1.985-3.824 3.03-2.34 1.067-5.122 1.067-3.151 0-5.655-1.43-2.504-1.408-3.963-3.798Q0 12.952 0 10.071"/><path fill="url(#b)" d="M.626 23.165H34v9.793q0 .384-.023 1.515a20 20 0 0 1-.162 2.219q-.51 3.648-2.828 6.166-2.294 2.54-5.864 3.84Q21.553 48 17.313 48q-4.242 0-7.81-1.301-3.57-1.302-5.887-3.841Q1.32 40.34.81 36.692a20 20 0 0 1-.162-2.198 96 96 0 0 1-.023-1.536zm5.26 5.227v4.566q0 .64.047 1.622.046 1.002.209 1.77.44 2.177 2.109 3.542 1.668 1.366 4.056 2.006 2.387.66 5.006.661 2.712 0 5.099-.661 2.387-.662 4.01-2.048 1.62-1.365 2.062-3.5a8.4 8.4 0 0 0 .209-1.77q.046-.982.046-1.622v-4.566z"/><path fill="#fff" d="M67.63 45.72V31.725q0-2.368-1.255-3.69-1.255-1.344-3.398-1.344-1.323 0-2.373.576-1.05.555-1.665 1.664-.615 1.088-.616 2.602l-2.44-1.344q-.023-2.389 1.14-4.202 1.186-1.834 3.194-2.859t4.47-1.024q4.084 0 6.25 2.304 2.19 2.283 2.19 6.016V45.72zm-29.63 0V22.68h4.858v7.147h.685V45.72zm14.85 0V31.79q-.001-2.412-1.256-3.755-1.254-1.344-3.42-1.344-2.1 0-3.377 1.344-1.254 1.344-1.254 3.498l-2.464-1.536q0-2.24 1.186-4.032 1.187-1.791 3.194-2.816 2.03-1.045 4.539-1.045 2.76 0 4.607 1.11 1.87 1.087 2.783 2.986.936 1.878.935 4.245V45.72zM86.555 47q-3.696 0-6.456-1.557-2.76-1.558-4.288-4.288-1.505-2.752-1.505-6.315 0-3.627 1.55-6.357a11.04 11.04 0 0 1 4.312-4.267q2.76-1.536 6.387-1.536 3.718 0 6.478 1.557a11 11 0 0 1 4.288 4.31q1.528 2.73 1.528 6.293 0 3.584-1.551 6.336-1.528 2.73-4.288 4.288Q90.25 47 86.555 47m0-4.821q3.285 0 4.88-2.048 1.598-2.05 1.598-5.291 0-3.349-1.62-5.333-1.62-2.006-4.858-2.006-2.213 0-3.65.939-1.414.918-2.098 2.581-.685 1.643-.685 3.819 0 3.35 1.62 5.355 1.642 1.984 4.813 1.984M111.187 46.36q-3.399 0-5.931-1.6t-3.923-4.352-1.392-6.208q0-3.498 1.392-6.23 1.414-2.751 3.991-4.33 2.578-1.6 6.068-1.6 3.513 0 5.885 1.6 2.394 1.578 3.626 4.33 1.233 2.753 1.232 6.23 0 3.435-1.232 6.208-1.231 2.752-3.672 4.352t-6.044 1.6m.843-4.608q2.214 0 3.559-.939 1.369-.96 1.984-2.666.639-1.707.639-3.947 0-2.262-.639-3.947-.615-1.706-1.939-2.645-1.323-.96-3.421-.96-2.213 0-3.65 1.024-1.437 1.003-2.121 2.73-.684 1.707-.684 3.798 0 2.112.661 3.84.685 1.706 2.076 2.71 1.392 1.002 3.535 1.002m6.182 3.968V29.55h-.684V15h5.542v30.72zM137.976 46.69q-3.741 0-6.569-1.515-2.829-1.514-4.425-4.203-1.575-2.687-1.574-6.186 0-3.775 1.551-6.55 1.551-2.794 4.311-4.33t6.387-1.536q3.831 0 6.5 1.685 2.692 1.665 3.992 4.715t.981 7.19h-5.452v-1.878q-.022-3.754-1.414-5.483t-4.379-1.728q-3.377 0-5.019 1.963-1.642 1.941-1.642 5.696 0 3.499 1.642 5.419 1.643 1.92 4.791 1.92 2.03 0 3.489-.833 1.483-.852 2.281-2.453l5.429 1.536q-1.415 3.114-4.379 4.843-2.943 1.728-6.501 1.728m-8.485-10.73v-3.883h16.947v3.882zM151.413 46.36V15h5.497v31.36zM169.625 46.768q-4.561 0-7.413-1.92-2.851-1.92-3.467-5.397l5.611-.81q.434 1.706 1.916 2.687 1.483.981 3.741.981 1.985 0 3.056-.725 1.095-.746 1.095-2.027 0-.789-.41-1.258-.388-.49-1.734-.939-1.345-.447-4.128-1.13-3.103-.768-4.927-1.643-1.825-.897-2.623-2.112-.8-1.215-.799-2.944 0-2.155 1.209-3.755t3.376-2.453q2.168-.875 5.109-.875 2.874 0 5.087.832 2.236.832 3.604 2.368a6.9 6.9 0 0 1 1.688 3.605l-5.611.94q-.206-1.473-1.437-2.326-1.21-.855-3.239-.96-1.939-.107-3.125.555-1.186.639-1.186 1.813 0 .661.479 1.13.479.47 1.916.94 1.46.468 4.334 1.151 2.941.705 4.698 1.621 1.78.897 2.555 2.155.798 1.26.798 3.05 0 3.479-2.714 5.462-2.692 1.984-7.459 1.984"/><defs><radialGradient id="a" cx="0" cy="0" r="1" gradientTransform="matrix(14 48 -55.9824 16.3282 5 0)" gradientUnits="userSpaceOnUse"><stop stop-color="#A62AFB"/><stop offset=".285" stop-color="#5E69FD"/><stop offset=".285" stop-color="#5A6AFF"/><stop offset=".651" stop-color="#FA4CB2"/><stop offset="1" stop-color="#A62AFB"/></radialGradient><radialGradient id="b" cx="0" cy="0" r="1" gradientTransform="matrix(14 48 -55.9824 16.3282 5 0)" gradientUnits="userSpaceOnUse"><stop stop-color="#A62AFB"/><stop offset=".285" stop-color="#5E69FD"/><stop offset=".285" stop-color="#5A6AFF"/><stop offset=".651" stop-color="#FA4CB2"/><stop offset="1" stop-color="#A62AFB"/></radialGradient></defs></svg>