<svg xmlns="http://www.w3.org/2000/svg" width="1440" height="664" fill="none"><path stroke="url(#a)" stroke-opacity=".85" d="M-75 150.296c701.5-281.5 1006.523 148.855 1762.5-40.5" opacity=".5"/><path stroke="url(#b)" stroke-opacity=".85" d="M-75.04 220.592c701.499-281.5 1006.522 148.855 1762.5-40.5" opacity=".5"/><path stroke="url(#c)" stroke-opacity=".85" d="M-73.04 189.592C740-103.704 770 351.296 1702.5 132.296" opacity=".5"/><path stroke="url(#d)" stroke-opacity=".85" d="M-31 554.296c701.5-281.5 1006.523 148.855 1762.5-40.5" opacity=".5"/><path stroke="url(#e)" stroke-opacity=".85" d="M-31.04 624.592c701.499-281.5 1006.522 148.855 1762.5-40.5" opacity=".5"/><path stroke="url(#f)" stroke-opacity=".85" d="M-29.04 593.592C784 300.296 814 755.296 1746.5 536.296" opacity=".5"/><path fill="#0C061F" d="M936.261 6.674a1 1 0 0 0 1.478-1.348zm-4.293-4.707 4.293 4.707 1.478-1.348L933.446.62z"/><defs><linearGradient id="a" x1="-3.828" x2="1435.82" y1="73.675" y2="41.63" gradientUnits="userSpaceOnUse"><stop stop-color="#FFADAC"/><stop offset=".608" stop-color="#5B449F"/><stop offset="1" stop-color="#5A6AFF"/></linearGradient><linearGradient id="b" x1="-3.868" x2="1435.78" y1="143.971" y2="111.926" gradientUnits="userSpaceOnUse"><stop stop-color="#FFADAC"/><stop offset=".608" stop-color="#5B449F"/><stop offset="1" stop-color="#5A6AFF"/></linearGradient><linearGradient id="c" x1="-1.842" x2="1437.8" y1="114.157" y2="82.112" gradientUnits="userSpaceOnUse"><stop stop-color="#FFADAC"/><stop offset=".608" stop-color="#5B449F"/><stop offset="1" stop-color="#5A6AFF"/></linearGradient><linearGradient id="d" x1="40.172" x2="1479.82" y1="477.675" y2="445.63" gradientUnits="userSpaceOnUse"><stop stop-color="#FFADAC"/><stop offset=".608" stop-color="#5B449F"/><stop offset="1" stop-color="#5A6AFF"/></linearGradient><linearGradient id="e" x1="40.132" x2="1479.78" y1="547.971" y2="515.926" gradientUnits="userSpaceOnUse"><stop stop-color="#FFADAC"/><stop offset=".608" stop-color="#5B449F"/><stop offset="1" stop-color="#5A6AFF"/></linearGradient><linearGradient id="f" x1="42.158" x2="1481.8" y1="518.157" y2="486.112" gradientUnits="userSpaceOnUse"><stop stop-color="#FFADAC"/><stop offset=".608" stop-color="#5B449F"/><stop offset="1" stop-color="#5A6AFF"/></linearGradient></defs></svg>